<svg width="33" height="29" viewBox="0 0 33 29" fill="none" xmlns="http://www.w3.org/2000/svg">
<path d="M14.5722 2.1999C14.9111 1.54434 14.6556 0.738789 14.0056 0.3999C13.3556 0.0610112 12.5444 0.316567 12.2056 0.966567L7.03333 10.9166H2.27778C1.29444 10.9166 0.5 11.711 0.5 12.6943C0.5 13.6777 1.29444 14.4721 2.27778 14.4721L5.16111 25.9999C5.55556 27.5832 6.97778 28.6943 8.61111 28.6943H24.3889C26.0222 28.6943 27.4444 27.5832 27.8389 25.9999L30.7222 14.4721C31.7056 14.4721 32.5 13.6777 32.5 12.6943C32.5 11.711 31.7056 10.9166 30.7222 10.9166H25.9667L20.7944 0.966567C20.4556 0.316567 19.65 0.0610112 18.9944 0.3999C18.3389 0.738789 18.0889 1.54434 18.4278 2.1999L22.9611 10.9166H10.0389L14.5722 2.1999ZM11.1667 17.1388V22.4721C11.1667 22.961 10.7667 23.361 10.2778 23.361C9.78889 23.361 9.38889 22.961 9.38889 22.4721V17.1388C9.38889 16.6499 9.78889 16.2499 10.2778 16.2499C10.7667 16.2499 11.1667 16.6499 11.1667 17.1388ZM16.5 16.2499C16.9889 16.2499 17.3889 16.6499 17.3889 17.1388V22.4721C17.3889 22.961 16.9889 23.361 16.5 23.361C16.0111 23.361 15.6111 22.961 15.6111 22.4721V17.1388C15.6111 16.6499 16.0111 16.2499 16.5 16.2499ZM23.6111 17.1388V22.4721C23.6111 22.961 23.2111 23.361 22.7222 23.361C22.2333 23.361 21.8333 22.961 21.8333 22.4721V17.1388C21.8333 16.6499 22.2333 16.2499 22.7222 16.2499C23.2111 16.2499 23.6111 16.6499 23.6111 17.1388Z" fill="black"/>
</svg>
