<svg width="20" height="20" viewBox="0 0 20 20" fill="none" xmlns="http://www.w3.org/2000/svg">
<path d="M0 1.85609C0 1.39033 0.374705 1.01562 0.840461 1.01562H2.43383C3.20426 1.01562 3.88713 1.46387 4.2058 2.13624H18.5987C19.5197 2.13624 20.1921 3.01172 19.9504 3.90121L18.5146 9.23463C18.217 10.3342 17.2189 11.1012 16.0808 11.1012H5.97778L6.16688 12.0992C6.24392 12.4949 6.59061 12.7821 6.99333 12.7821H17.0894C17.5551 12.7821 17.9298 13.1568 17.9298 13.6225C17.9298 14.0883 17.5551 14.463 17.0894 14.463H6.99333C5.78167 14.463 4.7416 13.6015 4.51748 12.4144L2.71049 2.92417C2.68597 2.7911 2.57041 2.69655 2.43383 2.69655H0.840461C0.374705 2.69655 0 2.32184 0 1.85609ZM4.48246 17.2645C4.48246 17.0438 4.52593 16.8252 4.61041 16.6213C4.69488 16.4173 4.8187 16.232 4.97479 16.0759C5.13087 15.9199 5.31618 15.796 5.52012 15.7116C5.72406 15.6271 5.94264 15.5836 6.16338 15.5836C6.38412 15.5836 6.6027 15.6271 6.80664 15.7116C7.01058 15.796 7.19588 15.9199 7.35197 16.0759C7.50806 16.232 7.63187 16.4173 7.71635 16.6213C7.80082 16.8252 7.8443 17.0438 7.8443 17.2645C7.8443 17.4853 7.80082 17.7038 7.71635 17.9078C7.63187 18.1117 7.50806 18.297 7.35197 18.4531C7.19588 18.6092 7.01058 18.733 6.80664 18.8175C6.6027 18.902 6.38412 18.9454 6.16338 18.9454C5.94264 18.9454 5.72406 18.902 5.52012 18.8175C5.31618 18.733 5.13087 18.6092 4.97479 18.4531C4.8187 18.297 4.69488 18.1117 4.61041 17.9078C4.52593 17.7038 4.48246 17.4853 4.48246 17.2645ZM16.2489 15.5836C16.6947 15.5836 17.1223 15.7607 17.4375 16.0759C17.7527 16.3912 17.9298 16.8187 17.9298 17.2645C17.9298 17.7103 17.7527 18.1379 17.4375 18.4531C17.1223 18.7684 16.6947 18.9454 16.2489 18.9454C15.8031 18.9454 15.3755 18.7684 15.0603 18.4531C14.7451 18.1379 14.568 17.7103 14.568 17.2645C14.568 16.8187 14.7451 16.3912 15.0603 16.0759C15.3755 15.7607 15.8031 15.5836 16.2489 15.5836Z" fill="black"/>
</svg>
