<svg width="216" height="170" viewBox="0 0 216 170" fill="none" xmlns="http://www.w3.org/2000/svg">
<g style="mix-blend-mode:multiply" opacity="0.22">
<path d="M75.6143 155.12H167.847C190.234 155.12 209.921 143.153 214.901 126.094C217.422 117.462 216.05 108.09 205.767 99.771C176.733 76.2768 208.292 73.2485 196.931 44.8334C185.279 15.682 132.151 -5.53269 71.8825 11.3849C-18.3563 36.7094 -11.1415 158.519 75.6184 155.12H75.6143Z" fill="#48CFEF"/>
</g>
<g style="mix-blend-mode:multiply" opacity="0.22">
<path d="M84.6658 155.132H157.958C175.746 155.132 191.391 145.623 195.347 132.066C197.349 125.207 196.259 117.761 188.09 111.151C165.02 92.4824 190.097 90.0781 181.07 67.4991C171.807 44.3335 129.592 27.4783 81.7011 40.9184C9.99692 61.0432 15.7273 157.832 84.67 155.132H84.6658Z" fill="#48CFEF"/>
</g>
<path d="M161.853 55.0239C121.367 54.4873 52.5901 103.61 40.1094 90.0489" stroke="white" stroke-width="2.26" stroke-miterlimit="10"/>
<g style="mix-blend-mode:multiply" opacity="0.56">
<path d="M109.367 169.999C136.29 169.999 158.116 168.56 158.116 166.784C158.116 165.008 136.29 163.568 109.367 163.568C82.4431 163.568 60.6172 165.008 60.6172 166.784C60.6172 168.56 82.4431 169.999 109.367 169.999Z" fill="#52A4E2"/>
</g>
<path d="M139.133 165.618L90.8773 168.039C86.225 168.272 81.8879 165.684 79.8727 161.471L34.8508 66.6869C33.2254 63.2926 33.582 59.8234 36.103 56.3458L36.3186 55.959L148.044 159.353C146.104 162.856 143.122 165.418 139.133 165.622V165.618Z" fill="#0B283E"/>
<path d="M147.22 159.741L89.5887 162.661C87.9841 162.744 86.4872 161.854 85.7865 160.406L36.2739 58.1516C35.5732 56.7081 36.6222 55.0234 38.2269 55.0234H94.9293C96.4552 55.0234 97.8484 55.8928 98.5202 57.2697L148.029 158.364C148.331 158.983 147.904 159.707 147.22 159.745V159.741Z" fill="#0F3552"/>
<path d="M40.1701 60.905C40.0415 60.6388 40.1328 60.4225 40.2033 60.3144C40.2696 60.2062 40.4272 60.0273 40.7216 60.0273H95.8649C96.7896 60.0273 97.6479 60.564 98.0584 61.3959L141.919 151.396L85.4864 153.368C81.7049 145.83 40.1742 60.9009 40.1742 60.9009L40.1701 60.905Z" fill="#3094D1"/>
<g style="mix-blend-mode:screen" opacity="0.27">
<path d="M77.3568 142.998L36.2739 58.1476C35.5732 56.7042 36.6222 55.0195 38.2269 55.0195H94.9293C96.4552 55.0195 77.3609 142.994 77.3609 142.994L77.3568 142.998Z" fill="#84BDF1"/>
</g>
<path d="M109.587 158.128L109.653 158.282C109.976 159.043 110.735 159.517 111.56 159.475L123.307 158.86C124.705 158.785 125.575 157.312 124.974 156.048C124.634 155.341 123.913 154.904 123.129 154.933L111.32 155.395C109.947 155.449 109.056 156.863 109.595 158.132L109.587 158.128Z" fill="#0B283E"/>
<mask id="mask0_92_13108" style="mask-type:luminance" maskUnits="userSpaceOnUse" x="55" y="38" width="108" height="105">
<path d="M120.911 140.927L57.2922 88.0445C55.1651 86.2766 54.8665 83.111 56.6329 80.9771L90.2439 40.2824C92.0061 38.1485 95.1616 37.849 97.2887 39.621L160.907 92.5037C163.034 94.2716 163.333 97.4371 161.567 99.5711L127.956 140.266C126.193 142.4 123.038 142.699 120.911 140.927Z" fill="white"/>
</mask>
<g mask="url(#mask0_92_13108)">
<path d="M164.769 95.7001L93.4395 36.418L53.4484 84.8451L124.778 144.127L164.769 95.7001Z" fill="#FECD29"/>
<g style="mix-blend-mode:multiply" opacity="0.3">
<path d="M164.769 95.7001L93.4395 36.418L53.4484 84.8451L124.778 144.127L164.769 95.7001Z" fill="#FECD29"/>
</g>
<g style="mix-blend-mode:multiply" opacity="0.59">
<path d="M110.092 89.0679L56.1133 85.0371L124.438 143.049L110.092 89.0679Z" fill="#FECD29"/>
</g>
<path d="M109.097 90.2744L53.4395 84.8418L124.762 144.13L109.097 90.2744Z" fill="#FECD29"/>
<g style="mix-blend-mode:multiply" opacity="0.59">
<path d="M98.5029 95.3322L87.1914 51.2973C86.7644 49.6792 86.7146 47.3206 87.5563 45.8772L92.5196 38.502L163.121 97.1875L157.216 102.537C155.956 103.648 153.269 104.966 151.598 104.841L106.107 101.655C102.488 101.389 99.4317 98.8472 98.4988 95.3281L98.5029 95.3322Z" fill="#FECD29"/>
</g>
<path d="M99.896 93.6473L88.1077 49.2131C87.6806 47.5949 87.9128 45.877 88.7545 44.4335L93.4358 36.4219L164.759 95.7064L157.817 101.821C156.557 102.932 154.907 103.485 153.236 103.36L107.505 99.9743C103.885 99.7081 100.829 97.1665 99.896 93.6473Z" fill="#FECD29"/>
</g>
<path d="M68.8478 63.166L96.7947 126.565L73.1227 123.486L46.457 68.8191L68.8478 63.166Z" fill="#3094D1"/>
<g style="mix-blend-mode:screen" opacity="0.27">
<path d="M68.8478 63.166L86.0513 102.188L81.3244 124.551L73.1227 123.486L46.457 68.8191L68.8478 63.166Z" fill="#84BDF1"/>
</g>
<g style="mix-blend-mode:multiply" opacity="0.5">
<path d="M105.995 57.5409C110.644 57.5409 114.413 53.7602 114.413 49.0966C114.413 44.433 110.644 40.6523 105.995 40.6523C101.347 40.6523 97.5781 44.433 97.5781 49.0966C97.5781 53.7602 101.347 57.5409 105.995 57.5409Z" fill="#FA3900"/>
</g>
<path d="M105.167 56.5545C109.816 56.5545 113.585 52.7739 113.585 48.1103C113.585 43.4466 109.816 39.666 105.167 39.666C100.519 39.666 96.75 43.4466 96.75 48.1103C96.75 52.7739 100.519 56.5545 105.167 56.5545Z" fill="#FA3900"/>
<path d="M103.951 52.332V44.652L104.791 45.492H102.271V43.932H105.895V52.332H103.951Z" fill="white"/>
<path d="M190.926 55.3571C190.926 55.3571 200.293 51.4137 203.245 53.531C206.198 55.6483 206.919 64.5335 210.041 66.5094C210.041 66.5094 202.984 65.0035 201.139 60.7814C201.139 60.7814 198.017 62.3455 196.085 58.8388C196.085 58.8388 190.599 59.9328 190.935 55.3571H190.926Z" fill="white"/>
<path d="M176.025 49.0053C176.025 49.0053 172.355 39.5045 168.785 38.8431C165.219 38.1817 158.336 43.8265 154.758 42.9404C154.758 42.9404 160.737 46.992 165.045 45.3988C165.045 45.3988 166.09 48.7391 169.946 47.7033C169.946 47.7033 172.969 52.4246 176.021 49.0053H176.025Z" fill="white"/>
<mask id="mask1_92_13108" style="mask-type:luminance" maskUnits="userSpaceOnUse" x="168" y="41" width="29" height="24">
<path d="M195.372 49.895L175.96 41.6926C175.31 41.418 174.561 41.7239 174.287 42.3761L169.074 54.793C168.801 55.4451 169.106 56.1964 169.756 56.4711L189.168 64.6734C189.818 64.9481 190.567 64.6421 190.841 63.99L196.054 51.573C196.327 50.9209 196.022 50.1696 195.372 49.895Z" fill="white"/>
</mask>
<g mask="url(#mask1_92_13108)">
<path d="M196.549 50.3923L174.783 41.1953L168.579 55.9738L190.345 65.1707L196.549 50.3923Z" fill="#FECD29"/>
<g style="mix-blend-mode:multiply" opacity="0.3">
<path d="M196.549 50.3923L174.783 41.1953L168.579 55.9738L190.345 65.1707L196.549 50.3923Z" fill="#FECD29"/>
</g>
<g style="mix-blend-mode:multiply" opacity="0.59">
<path d="M182.718 52.8164L169.246 55.8239L190.186 64.9295L182.718 52.8164Z" fill="#FECD29"/>
</g>
<path d="M182.564 53.1816L168.582 55.9728L190.347 65.17L182.564 53.1816Z" fill="#FECD29"/>
<g style="mix-blend-mode:multiply" opacity="0.59">
<path d="M180.35 55.2033L174.354 45.2906C174.13 44.9287 173.944 44.3547 174.043 43.9387L174.711 41.7715L196.256 50.873L195.206 52.6159C194.983 52.9778 194.423 53.5019 194.004 53.5934L182.668 56.1808C181.764 56.3846 180.831 55.9895 180.346 55.1991L180.35 55.2033Z" fill="#FECD29"/>
</g>
<path d="M180.565 54.6873L174.425 44.7122C174.201 44.3503 174.13 43.9136 174.23 43.4976L174.785 41.1973L196.55 50.3944L195.306 52.3994C195.082 52.7613 194.717 53.0192 194.303 53.1149L182.892 55.669C181.988 55.8728 181.055 55.4776 180.57 54.6873H180.565Z" fill="#FECD29"/>
</g>
<path d="M196.623 118.648C196.623 118.648 203.941 113.902 206.753 115.245C209.564 116.585 211.509 123.985 214.44 125.179C214.44 125.179 208.254 124.971 206.06 121.689C206.06 121.689 203.66 123.482 201.499 120.811C201.499 120.811 197.029 122.562 196.627 118.648H196.623Z" fill="white"/>
<path d="M183.081 115.537C183.081 115.537 178.553 108.066 175.444 108.045C172.334 108.024 167.366 113.831 164.211 113.627C164.211 113.627 169.871 116.144 173.271 114.147C173.271 114.147 174.652 116.81 177.757 115.354C177.757 115.354 181.021 118.885 183.085 115.537H183.081Z" fill="white"/>
<mask id="mask2_92_13108" style="mask-type:luminance" maskUnits="userSpaceOnUse" x="178" y="109" width="23" height="18">
<path d="M199.551 113.373L181.925 109.379C181.335 109.245 180.749 109.616 180.616 110.208L178.077 121.484C177.944 122.075 178.314 122.663 178.904 122.797L196.53 126.791C197.119 126.925 197.705 126.554 197.839 125.962L200.378 114.687C200.511 114.095 200.141 113.507 199.551 113.373Z" fill="white"/>
</mask>
<g mask="url(#mask2_92_13108)">
<path d="M200.619 113.615L180.857 109.137L177.836 122.555L197.597 127.033L200.619 113.615Z" fill="#26A5B4"/>
<g style="mix-blend-mode:multiply" opacity="0.3">
<path d="M200.619 113.615L180.857 109.137L177.836 122.555L197.597 127.033L200.619 113.615Z" fill="#26A5B4"/>
</g>
<g style="mix-blend-mode:multiply" opacity="0.59">
<path d="M189.309 117.742L178.383 122.318L197.436 126.848L189.309 117.742Z" fill="#26A5B4"/>
</g>
<path d="M189.234 118.074L177.84 122.546L197.606 127.026L189.234 118.074Z" fill="#26A5B4"/>
<g style="mix-blend-mode:multiply" opacity="0.59">
<path d="M187.667 120.118L181.116 112.651C180.871 112.377 180.631 111.923 180.652 111.557L180.892 109.627L200.455 114.061L199.833 115.692C199.696 116.033 199.302 116.557 198.966 116.699L189.778 120.596C189.044 120.904 188.198 120.713 187.672 120.118H187.667Z" fill="#26A5B4"/>
</g>
<path d="M187.772 119.647L181.088 112.151C180.843 111.877 180.718 111.519 180.743 111.153L180.864 109.123L200.625 113.603L199.875 115.483C199.738 115.824 199.473 116.095 199.133 116.24L189.878 120.121C189.144 120.429 188.298 120.238 187.772 119.643V119.647Z" fill="#26A5B4"/>
</g>
<path d="M44.1562 102.549C44.1562 102.549 48.4768 89.7159 53.1789 88.6261C57.8768 87.5362 67.3431 94.6286 72.0493 93.2476C72.0493 93.2476 64.3452 98.9797 58.5278 97.112C58.5278 97.112 57.3378 101.609 52.1506 100.461C52.1506 100.461 48.4105 106.908 44.1604 102.549H44.1562Z" fill="white"/>
<path d="M24.7335 111.863C24.7335 111.863 12.0661 107.174 8.26798 110.161C4.46985 113.144 4.02618 124.991 0 127.794C0 127.794 9.28386 125.377 11.4939 119.666C11.4939 119.666 15.7316 121.563 18.095 116.792C18.095 116.792 25.4466 117.919 24.7335 111.863Z" fill="white"/>
<path d="M42.6388 93.2989L17.4106 105.496C16.5668 105.904 16.2124 106.921 16.619 107.767L24.3703 123.903C24.7769 124.749 25.7905 125.105 26.6342 124.697L51.8625 112.5C52.7063 112.092 53.0606 111.075 52.654 110.229L44.9028 94.093C44.4962 93.2465 43.4826 92.891 42.6388 93.2989Z" fill="#9EC700"/>
<mask id="mask3_92_13108" style="mask-type:luminance" maskUnits="userSpaceOnUse" x="16" y="93" width="37" height="32">
<path d="M42.6388 93.2989L17.4106 105.496C16.5668 105.904 16.2124 106.921 16.619 107.767L24.3703 123.903C24.7769 124.749 25.7905 125.105 26.6342 124.697L51.8625 112.5C52.7063 112.092 53.0606 111.075 52.654 110.229L44.9028 94.093C44.4962 93.2465 43.4826 92.891 42.6388 93.2989Z" fill="white"/>
</mask>
<g mask="url(#mask3_92_13108)">
<path d="M44.1666 92.5623L15.8828 106.236L25.1065 125.437L53.3903 111.763L44.1666 92.5623Z" fill="#9EC700"/>
<g style="mix-blend-mode:multiply" opacity="0.3">
<path d="M44.1666 92.5623L15.8828 106.236L25.1065 125.437L53.3903 111.763L44.1666 92.5623Z" fill="#9EC700"/>
</g>
<g style="mix-blend-mode:multiply" opacity="0.59">
<path d="M34.4078 108.52L25.5469 124.639L53.0128 111.71L34.4078 108.52Z" fill="#9EC700"/>
</g>
<path d="M34.6359 108.998L25.1074 125.437L53.3902 111.76L34.6359 108.998Z" fill="#9EC700"/>
<g style="mix-blend-mode:multiply" opacity="0.59">
<path d="M34.6927 112.986L19.5707 110.262C19.0151 110.166 18.2812 109.846 17.9577 109.384L16.3945 106.809L44.3912 93.2734L45.1998 95.8566C45.3615 96.4016 45.3864 97.4207 45.1127 97.9199L37.7113 111.531C37.1184 112.612 35.9076 113.199 34.6927 112.991V112.986Z" fill="#9EC700"/>
</g>
<path d="M34.3737 112.317L19.0609 109.684C18.5053 109.589 18.0077 109.272 17.6843 108.811L15.8848 106.232L44.1676 92.5586L45.0632 95.5661C45.2249 96.111 45.1627 96.7017 44.889 97.2009L37.3923 110.857C36.7994 111.939 35.5886 112.525 34.3737 112.317Z" fill="#9EC700"/>
</g>
<path d="M136.342 12.3542C136.342 12.3542 135.824 3.62703 138.37 1.83419C140.916 0.0371839 148.292 1.97562 150.772 0.00390625C150.772 0.00390625 147.55 5.30757 143.623 5.60707C143.623 5.60707 144.001 8.58544 140.621 9.16364C140.621 9.16364 139.945 13.9307 136.346 12.3583L136.342 12.3542Z" fill="white"/>
<path d="M123.451 20.1287C123.451 20.1287 115.478 16.6054 112.915 18.3733C110.353 20.1453 109.594 27.7535 106.891 29.4007C106.891 29.4007 112.965 28.2152 114.615 24.6253C114.615 24.6253 117.269 26.0147 118.982 23.0363C118.982 23.0363 123.671 24.0555 123.451 20.1287Z" fill="white"/>
<path d="M132.762 4.99546L117.65 14.935C117.144 15.2675 117.003 15.9483 117.335 16.4555L123.653 26.1229C123.984 26.6301 124.663 26.7717 125.168 26.4391L140.28 16.4996C140.786 16.1671 140.927 15.4863 140.595 14.9791L134.277 5.31173C133.946 4.80452 133.267 4.66292 132.762 4.99546Z" fill="#D0D9E9"/>
<mask id="mask4_92_13108" style="mask-type:luminance" maskUnits="userSpaceOnUse" x="117" y="4" width="24" height="23">
<path d="M132.762 4.99546L117.65 14.935C117.144 15.2675 117.003 15.9483 117.335 16.4555L123.653 26.1229C123.984 26.6301 124.663 26.7717 125.168 26.4391L140.28 16.4996C140.786 16.1671 140.927 15.4863 140.595 14.9791L134.277 5.31173C133.946 4.80452 133.267 4.66292 132.762 4.99546Z" fill="white"/>
</mask>
<g mask="url(#mask4_92_13108)">
<path d="M133.677 4.39334L116.734 15.5371L124.253 27.0413L141.195 15.8975L133.677 4.39334Z" fill="#33C7CA"/>
<g style="mix-blend-mode:multiply" opacity="0.3">
<path d="M133.677 4.39334L116.734 15.5371L124.253 27.0413L141.195 15.8975L133.677 4.39334Z" fill="#33C7CA"/>
</g>
<g style="mix-blend-mode:multiply" opacity="0.59">
<path d="M128.775 15.4199L124.463 26.4807L140.949 15.8858L128.775 15.4199Z" fill="#33C7CA"/>
</g>
<path d="M128.962 15.707L124.252 27.0298L141.194 15.8859L128.962 15.707Z" fill="#33C7CA"/>
<g style="mix-blend-mode:multiply" opacity="0.59">
<path d="M129.335 18.254L119.43 17.7923C119.065 17.7798 118.571 17.6384 118.323 17.368L117.104 15.8539L133.876 4.82227L134.61 6.40712C134.759 6.74406 134.863 7.38882 134.73 7.73408L131.139 17.0685C130.849 17.809 130.123 18.2873 129.331 18.2582L129.335 18.254Z" fill="#33C7CA"/>
</g>
<path d="M129.074 17.8542L119.056 17.4674C118.691 17.4549 118.347 17.2927 118.103 17.0223L116.734 15.5248L133.677 4.38086L134.506 6.23194C134.655 6.56888 134.664 6.94742 134.531 7.29267L130.882 16.6646C130.592 17.405 129.866 17.8834 129.074 17.8542Z" fill="#33C7CA"/>
</g>
<path d="M171.941 55.9609C206.476 59.1307 139.176 119.775 52.822 122.201C52.822 122.201 42.116 123.07 43.8823 117.804" stroke="white" stroke-width="2.26" stroke-miterlimit="10"/>
<path d="M38.8617 87.6732C38.7415 87.4112 38.671 87.1283 38.6171 86.8454C38.5632 86.5626 38.53 86.2714 38.5176 85.9844H38.5798C38.5839 86.2672 38.6047 86.5584 38.6461 86.8413C38.6917 87.1241 38.7498 87.4112 38.8617 87.6774V87.6732Z" fill="white"/>
<path d="M38.7285 83.3898L39.1639 81.7051L39.3588 81.7716L38.8819 83.4231L38.7285 83.3898Z" fill="white"/>
<path d="M40.0957 79.2711L40.8586 77.707L41.1448 77.8651L40.3486 79.3876L40.0957 79.2711Z" fill="white"/>
<path d="M42.1523 75.4442L43.0936 73.9883L43.4585 74.242L42.4841 75.6605L42.1523 75.4442Z" fill="white"/>
<path d="M44.6113 71.8705L45.677 70.502L46.0875 70.8389L45.0052 72.1742L44.6113 71.8705Z" fill="white"/>
<path d="M47.3438 68.5051L48.4923 67.2031L48.9318 67.6108L47.7708 68.8795L47.3438 68.5051Z" fill="white"/>
<path d="M50.2598 65.2984L51.4664 64.0547L51.9432 64.5331L50.72 65.7477L50.2598 65.2984Z" fill="white"/>
<path d="M53.3164 62.2253L54.5686 61.0273L55.0745 61.5764L53.8098 62.7453L53.3164 62.2253Z" fill="white"/>
<path d="M56.4746 59.2633L57.7724 58.1152L58.2949 58.7184L57.0012 59.854L56.4746 59.2633Z" fill="white"/>
<path d="M59.7422 56.4175L61.0649 55.3027L61.5915 55.9433L60.2646 57.0415L59.7422 56.4175Z" fill="white"/>
<path d="M63.0762 53.6599L64.4279 52.5742L64.9504 53.2439L63.5986 54.313L63.0762 53.6599Z" fill="white"/>
<path d="M66.4688 50.9723L67.8412 49.9199L68.3678 50.6188L66.9953 51.6587L66.4688 50.9723Z" fill="white"/>
<path d="M69.873 48.3561L71.088 47.1914L71.7348 47.8154L70.4494 49.0342L69.873 48.3561Z" fill="white"/>
<path d="M72.7578 45.2609L73.7654 43.8965L74.52 44.4206L73.471 45.8308L72.7578 45.2609Z" fill="white"/>
<path d="M75.0684 41.7258C75.3213 41.2267 75.5535 40.7192 75.7359 40.1992L76.6108 40.507C76.4118 41.0769 76.1713 41.6218 75.8976 42.1501L75.0684 41.7217V41.7258Z" fill="white"/>
<path d="M76.1549 37.8368C76.13 37.321 75.9973 36.826 75.7402 36.4059L76.5115 35.9316C76.8598 36.4932 77.0339 37.1504 77.0671 37.7869L76.1549 37.8368Z" fill="white"/>
<path d="M73.9519 35.0124L73.1806 34.7628C73.0521 34.7129 72.9194 34.7046 72.7867 34.6713L72.3887 34.5923L72.5131 33.7188L72.9609 33.8061C73.1102 33.8394 73.2636 33.8519 73.4087 33.9059L74.2794 34.1846L73.9519 35.0124Z" fill="white"/>
<path d="M69.8887 34.5L68.1969 34.6289L68.1016 33.7804L69.8514 33.6348L69.8887 34.5Z" fill="white"/>
<path d="M65.6601 34.9901L63.9725 35.3063L63.8066 34.491L65.515 34.1582L65.6601 34.9901Z" fill="white"/>
<path d="M61.4677 35.8648L59.805 36.285L59.5977 35.5029L61.2728 35.0703L61.4677 35.8648Z" fill="white"/>
<path d="M57.3215 36.9702L55.6712 37.4527L55.4473 36.7206L57.1017 36.209L57.3215 36.9702Z" fill="white"/>
<path d="M53.2075 38.2235L51.5738 38.7642L51.3457 38.107L52.9794 37.5371L53.2075 38.2235Z" fill="white"/>
<path d="M49.1357 39.6171L47.5227 40.2119L47.2988 39.6337L48.9118 39.0098L49.1357 39.6171Z" fill="white"/>
<path d="M45.1145 41.1474L43.5181 41.8047L43.3066 41.3013L44.8947 40.6191L45.1145 41.1474Z" fill="white"/>
<path d="M41.1494 42.8323L39.5862 43.5561L39.3789 43.1318L40.9421 42.3789L41.1494 42.8323Z" fill="white"/>
<path d="M37.2679 44.6954L35.7545 45.5148L35.5762 45.207L37.0813 44.3418L37.2679 44.6954Z" fill="white"/>
<path d="M33.5623 46.8675C33.0896 47.1919 32.6335 47.533 32.2064 47.9115L32.0488 47.741C32.4759 47.3417 32.932 46.9798 33.4006 46.6387L33.5623 46.8675Z" fill="white"/>
<path d="M30.9952 49.9785C31.0574 50.2364 31.2481 50.4527 31.4762 50.6108C31.7043 50.773 31.9696 50.8853 32.235 50.981L32.206 51.0767C31.9282 50.9893 31.6545 50.8853 31.4057 50.7231C31.1569 50.565 30.9289 50.3321 30.8418 50.0243L30.9952 49.9827V49.9785Z" fill="white"/>
<path d="M34.7734 51.4434L34.8679 51.4516L34.7734 51.4434Z" fill="white"/>
<path d="M44.3318 37.5816C44.3318 37.5816 52.4919 34.5159 54.9508 36.4293C57.4096 38.3428 57.733 45.9842 60.3411 47.7812C60.3411 47.7812 54.3412 46.2505 52.8983 42.5733C52.8983 42.5733 50.1699 43.8087 48.6275 40.7388C48.6275 40.7388 43.8881 41.4917 44.3276 37.5816H44.3318Z" fill="white"/>
<path d="M34.9369 33.1314C34.9369 33.1314 32.1049 24.8619 29.0697 24.1755C26.0345 23.4892 19.9475 28.094 16.9082 27.2163C16.9082 27.2163 21.9005 30.8893 25.6447 29.6664C25.6447 29.6664 26.4284 32.5657 29.7704 31.8086C29.7704 31.8086 32.2044 35.9559 34.9327 33.1314H34.9369Z" fill="white"/>
<mask id="mask5_92_13108" style="mask-type:luminance" maskUnits="userSpaceOnUse" x="25" y="29" width="25" height="22">
<path d="M48.4555 37.4505L32.0891 29.7663C31.5415 29.5092 30.8899 29.7461 30.6336 30.2954L25.7493 40.7654C25.493 41.3147 25.7292 41.9684 26.2767 42.2255L42.6431 49.9097C43.1907 50.1668 43.8423 49.9299 44.0986 49.3806L48.983 38.9106C49.2392 38.3613 49.0031 37.7076 48.4555 37.4505Z" fill="white"/>
</mask>
<g mask="url(#mask5_92_13108)">
<path d="M49.447 37.916L31.0977 29.3008L25.2853 41.76L43.6346 50.3752L49.447 37.916Z" fill="#FECD29"/>
<g style="mix-blend-mode:multiply" opacity="0.3">
<path d="M49.447 37.916L31.0977 29.3008L25.2853 41.76L43.6346 50.3752L49.447 37.916Z" fill="#FECD29"/>
</g>
<g style="mix-blend-mode:multiply" opacity="0.59">
<path d="M37.5165 39.5254L25.8691 41.651L43.5163 50.1618L37.5165 39.5254Z" fill="#FECD29"/>
</g>
<path d="M37.3757 39.8379L25.293 41.7597L43.6451 50.3745L37.3757 39.8379Z" fill="#FECD29"/>
<g style="mix-blend-mode:multiply" opacity="0.59">
<path d="M35.4044 41.4943L30.5945 32.7963C30.4162 32.476 30.2753 31.981 30.3748 31.6274L31.0216 29.793L49.1871 38.3204L48.2293 39.7805C48.022 40.0841 47.5286 40.5126 47.1678 40.5792L37.3615 42.4178C36.582 42.5592 35.7942 42.1931 35.4044 41.4985V41.4943Z" fill="#FECD29"/>
</g>
<path d="M35.6084 41.0603L30.6741 32.3041C30.4958 31.9838 30.4502 31.6094 30.5497 31.2559L31.1012 29.3008L49.4533 37.9156L48.3172 39.592C48.1099 39.8956 47.7906 40.1036 47.434 40.1702L37.5655 41.9796C36.786 42.1211 35.9981 41.755 35.6084 41.0603Z" fill="#FECD29"/>
</g>
<path d="M65.1447 136.518C64.6098 136.734 64.0832 136.963 63.5608 137.204L63.5234 137.117C64.0583 136.909 64.6015 136.705 65.1447 136.518Z" fill="white"/>
<path d="M61.225 138.318L59.6991 139.117L59.5664 138.867L61.1338 138.127L61.225 138.318Z" fill="white"/>
<path d="M57.4728 140.419L56.0381 141.367L55.7852 140.984L57.2737 140.086L57.4728 140.419Z" fill="white"/>
<path d="M53.9938 142.915C53.5584 143.281 53.1396 143.664 52.7457 144.072L52.3477 143.668C52.7664 143.26 53.2101 142.874 53.6662 142.512L53.9979 142.919L53.9938 142.915Z" fill="white"/>
<path d="M51.1709 146.044C50.8806 146.518 50.6401 147.017 50.4784 147.537L49.8398 147.329C50.0347 146.751 50.3125 146.21 50.636 145.707L51.1709 146.044Z" fill="white"/>
<path d="M50.366 149.916C50.4821 150.436 50.6936 150.935 50.9714 151.401L50.2955 151.792C49.997 151.26 49.7648 150.677 49.6445 150.07L50.366 149.916Z" fill="white"/>
<path d="M52.5799 153.148C53.036 153.431 53.5419 153.66 54.0602 153.851L53.7658 154.633C53.2102 154.421 52.6628 154.168 52.1445 153.839L52.5799 153.148Z" fill="white"/>
<path d="M56.4947 154.525C57.0462 154.638 57.6059 154.733 58.1699 154.812L58.0413 155.686C57.465 155.599 56.8886 155.495 56.3164 155.37L56.4947 154.525Z" fill="white"/>
<path d="M60.7111 155.09L62.4194 155.194L62.378 156.101L60.6406 155.988L60.7111 155.09Z" fill="white"/>
<path d="M64.9866 155.253L66.7032 155.24L66.7198 156.164L64.9824 156.172L64.9866 155.253Z" fill="white"/>
<path d="M69.2734 155.145L70.9859 155.037L71.0523 155.973L69.319 156.077L69.2734 155.145Z" fill="white"/>
<path d="M73.5527 154.829L75.2652 154.65L75.3647 155.566L73.644 155.753L73.5527 154.829Z" fill="white"/>
<path d="M77.8242 154.333L79.5243 154.092L79.6611 154.986L77.9445 155.236L77.8242 154.333Z" fill="white"/>
<path d="M82.0703 153.68L83.7662 153.385L83.9238 154.242L82.2237 154.562L82.0703 153.68Z" fill="white"/>
<path d="M86.2988 152.895L87.9823 152.541L88.1606 153.348L86.4688 153.722L86.2988 152.895Z" fill="white"/>
<path d="M90.5 151.966L92.171 151.562L92.3617 152.307L90.6866 152.744L90.5 151.966Z" fill="white"/>
<path d="M94.6699 150.922L96.3285 150.469L96.5192 151.114L94.8607 151.609L94.6699 150.922Z" fill="white"/>
<path d="M98.8125 149.746L100.459 149.238L100.637 149.792L98.9949 150.336L98.8125 149.746Z" fill="white"/>
<path d="M102.914 148.434L104.544 147.877L104.709 148.335L103.088 148.934L102.914 148.434Z" fill="white"/>
<path d="M106.977 147.004L108.59 146.4L108.722 146.729L107.126 147.39L106.977 147.004Z" fill="white"/>
<path d="M111 145.452L112.592 144.795L112.675 144.982L111.104 145.698L111 145.452Z" fill="white"/>
<path d="M114.971 143.771L116.546 143.068L116.555 143.085L115.012 143.863L114.971 143.771Z" fill="white"/>
</svg>
