<svg  width="13" height="10" viewBox="0 0 13 10" fill="none" xmlns="http://www.w3.org/2000/svg">
<path d="M1.625 0.5C1.00391 0.5 0.5 1.00391 0.5 1.625C0.5 1.97891 0.666406 2.31172 0.95 2.525L6.05 6.35C6.31719 6.54922 6.68281 6.54922 6.95 6.35L12.05 2.525C12.3336 2.31172 12.5 1.97891 12.5 1.625C12.5 1.00391 11.9961 0.5 11.375 0.5H1.625ZM0.5 3.125V8C0.5 8.82734 1.17266 9.5 2 9.5H11C11.8273 9.5 12.5 8.82734 12.5 8V3.125L7.4 6.95C6.86562 7.35078 6.13438 7.35078 5.6 6.95L0.5 3.125Z" fill="black"/>
</svg>
