<svg width="9" height="12" viewBox="0 0 9 12" fill="none" xmlns="http://www.w3.org/2000/svg">
<path d="M5.05547 11.7234C6.25781 10.2188 9 6.57188 9 4.52344C9 2.03906 6.98438 0.0234375 4.5 0.0234375C2.01562 0.0234375 0 2.03906 0 4.52344C0 6.57188 2.74219 10.2188 3.94453 11.7234C4.23281 12.082 4.76719 12.082 5.05547 11.7234ZM4.5 6.02344C3.67266 6.02344 3 5.35078 3 4.52344C3 3.69609 3.67266 3.02344 4.5 3.02344C5.32734 3.02344 6 3.69609 6 4.52344C6 5.35078 5.32734 6.02344 4.5 6.02344Z" fill="black"/>
</svg>
