<svg width="16" height="18" viewBox="0 0 16 18" fill="none" xmlns="http://www.w3.org/2000/svg">
<path d="M5.1875 5.0625V6.75H10.8125V5.0625C10.8125 3.50859 9.55391 2.25 8 2.25C6.44609 2.25 5.1875 3.50859 5.1875 5.0625ZM2.9375 6.75V5.0625C2.9375 2.26758 5.20508 0 8 0C10.7949 0 13.0625 2.26758 13.0625 5.0625V6.75H13.625C14.866 6.75 15.875 7.75898 15.875 9V15.75C15.875 16.991 14.866 18 13.625 18H2.375C1.13398 18 0.125 16.991 0.125 15.75V9C0.125 7.75898 1.13398 6.75 2.375 6.75H2.9375Z" fill="#A6A6A6"/>
</svg>
