<svg width="13" height="12" viewBox="0 0 13 12" fill="none" xmlns="http://www.w3.org/2000/svg">
<path d="M7.0625 0.000528463C10.0648 0.000528463 12.5 2.43568 12.5 5.43803C12.5 5.74975 12.2492 6.00053 11.9375 6.00053C11.6258 6.00053 11.375 5.74975 11.375 5.43803C11.375 3.05678 9.44375 1.12553 7.0625 1.12553C6.75078 1.12553 6.5 0.874747 6.5 0.563028C6.5 0.25131 6.75078 0.000528463 7.0625 0.000528463ZM7.25 4.50053C7.44891 4.50053 7.63968 4.57955 7.78033 4.7202C7.92098 4.86085 8 5.05162 8 5.25053C8 5.44944 7.92098 5.64021 7.78033 5.78086C7.63968 5.92151 7.44891 6.00053 7.25 6.00053C7.05109 6.00053 6.86032 5.92151 6.71967 5.78086C6.57902 5.64021 6.5 5.44944 6.5 5.25053C6.5 5.05162 6.57902 4.86085 6.71967 4.7202C6.86032 4.57955 7.05109 4.50053 7.25 4.50053ZM6.5 2.81303C6.5 2.50131 6.75078 2.25053 7.0625 2.25053C8.82266 2.25053 10.25 3.67787 10.25 5.43803C10.25 5.74975 9.99922 6.00053 9.6875 6.00053C9.37578 6.00053 9.125 5.74975 9.125 5.43803C9.125 4.29897 8.20156 3.37553 7.0625 3.37553C6.75078 3.37553 6.5 3.12475 6.5 2.81303ZM3.25391 0.033341C3.70859 -0.0908778 4.18437 0.141153 4.36484 0.577091L5.30234 2.82709C5.46172 3.20912 5.35156 3.65209 5.03047 3.91225L3.875 4.85912C4.65547 6.50912 5.99141 7.84506 7.64141 8.62553L8.58594 7.47006C8.84844 7.14897 9.28906 7.03881 9.67109 7.19818L11.9211 8.13568C12.357 8.31615 12.5891 8.79193 12.4648 9.24662L11.9023 11.3091C11.7922 11.7169 11.4219 12.0005 11 12.0005C5.20156 12.0005 0.5 7.29897 0.5 1.50053C0.5 1.07865 0.783594 0.708341 1.19141 0.595841L3.25391 0.033341Z" fill="white"/>
</svg>
