<svg width="41" height="43" viewBox="0 0 41 43" fill="none" xmlns="http://www.w3.org/2000/svg">
<g opacity="0.25" filter="url(#filter0_f_59_4910)">
<rect x="6.52539" y="20" width="27.2489" height="17.0306" rx="8.51529" fill="url(#paint0_linear_59_4910)"/>
</g>
<rect x="5.94922" y="5.44922" width="29.0196" height="29.0196" rx="4.75" fill="url(#paint1_linear_59_4910)" stroke="black" stroke-width="0.5"/>
<g filter="url(#filter1_i_59_4910)">
<path fill-rule="evenodd" clip-rule="evenodd" d="M23.9113 17.0883C25.0179 17.8418 26.3431 18.2444 27.7008 18.2395V15.662C27.4339 15.6627 27.1677 15.6354 26.907 15.5804V17.6338C25.5462 17.6361 24.2191 17.2289 23.113 16.4696V21.7707C23.1097 22.6406 22.8606 23.4934 22.3923 24.2387C21.924 24.9839 21.2539 25.5939 20.453 26.0039C19.6521 26.4139 18.7503 26.6087 17.8432 26.5675C16.9362 26.5264 16.0576 26.2509 15.3008 25.7702C16.0008 26.4487 16.8954 26.9129 17.8711 27.1041C18.8467 27.2954 19.8597 27.2049 20.7817 26.8443C21.7037 26.4836 22.4933 25.869 23.0504 25.0783C23.6075 24.2875 23.9071 23.3562 23.9113 22.4022V17.0883ZM24.8934 14.4592C24.3307 13.8749 23.9854 13.1288 23.9113 12.337V12.002H23.1579C23.251 12.5052 23.4536 12.9841 23.7527 13.4075C24.0517 13.8308 24.4403 14.1892 24.8934 14.4592ZM17.0453 23.7297C16.7842 23.4025 16.6241 23.0118 16.5834 22.6019C16.5427 22.1919 16.623 21.7793 16.815 21.4109C17.0071 21.0425 17.3032 20.7331 17.6698 20.518C18.0364 20.3029 18.4586 20.1907 18.8885 20.1942C19.1258 20.1941 19.3618 20.2289 19.5881 20.2973V17.6338C19.3235 17.6003 19.0567 17.5859 18.7898 17.5909V19.6615C18.2387 19.4946 17.6422 19.5325 17.119 19.7678C16.5958 20.003 16.1841 20.4182 15.966 20.9309C15.7478 21.4436 15.7391 22.0162 15.9416 22.5348C16.1441 23.0534 16.5429 23.4799 17.0588 23.7297H17.0453Z" fill="#EE1D52"/>
<path fill-rule="evenodd" clip-rule="evenodd" d="M23.0395 16.4986C24.1091 17.2657 25.3924 17.6771 26.7082 17.6748V15.6001C25.9585 15.4415 25.2775 15.0513 24.7611 14.4846C24.323 14.2118 23.9472 13.8498 23.6581 13.422C23.3689 12.9943 23.1729 12.5105 23.0829 12.002H21.1662V22.51C21.1644 22.9751 21.0171 23.428 20.745 23.805C20.473 24.1821 20.0897 24.4644 19.6492 24.6124C19.2086 24.7603 18.7328 24.7665 18.2885 24.6299C17.8443 24.4934 17.4539 24.2211 17.1722 23.8511C16.7258 23.6257 16.3683 23.2563 16.1574 22.8025C15.9464 22.3487 15.8944 21.837 16.0096 21.35C16.1249 20.863 16.4007 20.4291 16.7926 20.1182C17.1845 19.8074 17.6696 19.6377 18.1696 19.6366C18.3991 19.6374 18.6271 19.6725 18.8461 19.7408V17.6488C17.8997 17.6715 16.9805 17.9703 16.2014 18.5085C15.4223 19.0468 14.8172 19.801 14.4603 20.6786C14.1034 21.5562 14.0102 22.519 14.1923 23.4488C14.3744 24.3786 14.8238 25.235 15.4853 25.9128C16.2173 26.4019 17.0682 26.6832 17.9473 26.7266C18.8264 26.77 19.7008 26.5739 20.4773 26.1592C21.2538 25.7446 21.9035 25.1268 22.357 24.3718C22.8105 23.6168 23.0509 22.7529 23.0525 21.8719L23.0395 16.4986Z" fill="white"/>
<path fill-rule="evenodd" clip-rule="evenodd" d="M27.0788 15.8421V15.2822C26.3904 15.2851 25.7152 15.0925 25.1318 14.7266C25.6468 15.2949 26.3284 15.6854 27.0788 15.8421ZM23.4535 12.2439C23.4535 12.1441 23.4232 12.0399 23.4102 11.9401V11.6016H20.7649V22.1139C20.7626 22.7025 20.5271 23.2662 20.11 23.6812C19.6929 24.0962 19.1284 24.3286 18.5403 24.3275C18.194 24.3292 17.8522 24.2489 17.5429 24.0931C17.8246 24.463 18.2149 24.7354 18.6592 24.8719C19.1034 25.0084 19.5792 25.0023 20.0198 24.8544C20.4604 24.7064 20.8436 24.4241 21.1157 24.047C21.3877 23.6699 21.535 23.2171 21.5368 22.7519V12.2439H23.4535ZM19.2168 17.8864V17.2918C18.1283 17.1438 17.0218 17.3691 16.0776 17.9311C15.1334 18.4931 14.4073 19.3586 14.0175 20.3866C13.6277 21.4145 13.5973 22.5443 13.9311 23.5918C14.265 24.6392 14.9435 25.5427 15.856 26.1548C15.1995 25.4754 14.7549 24.6194 14.5765 23.6913C14.3981 22.7631 14.4937 21.8031 14.8515 20.9284C15.2093 20.0538 15.814 19.3024 16.5915 18.766C17.369 18.2296 18.2858 17.9315 19.2298 17.9081L19.2168 17.8864Z" fill="#69C9D0"/>
</g>
<defs>
<filter id="filter0_f_59_4910" x="1.06539" y="14.54" width="38.168" height="27.9513" filterUnits="userSpaceOnUse" color-interpolation-filters="sRGB">
<feFlood flood-opacity="0" result="BackgroundImageFix"/>
<feBlend mode="normal" in="SourceGraphic" in2="BackgroundImageFix" result="shape"/>
<feGaussianBlur stdDeviation="2.73" result="effect1_foregroundBlur_59_4910"/>
</filter>
<filter id="filter1_i_59_4910" x="11.3008" y="10.8008" width="18" height="18.5" filterUnits="userSpaceOnUse" color-interpolation-filters="sRGB">
<feFlood flood-opacity="0" result="BackgroundImageFix"/>
<feBlend mode="normal" in="SourceGraphic" in2="BackgroundImageFix" result="shape"/>
<feColorMatrix in="SourceAlpha" type="matrix" values="0 0 0 0 0 0 0 0 0 0 0 0 0 0 0 0 0 0 127 0" result="hardAlpha"/>
<feOffset dy="0.5"/>
<feGaussianBlur stdDeviation="1.25"/>
<feComposite in2="hardAlpha" operator="arithmetic" k2="-1" k3="1"/>
<feColorMatrix type="matrix" values="0 0 0 0 0 0 0 0 0 0 0 0 0 0 0 0 0 0 0.1 0"/>
<feBlend mode="normal" in2="shape" result="effect1_innerShadow_59_4910"/>
</filter>
<linearGradient id="paint0_linear_59_4910" x1="7.07924" y1="20" x2="19.0882" y2="44.0558" gradientUnits="userSpaceOnUse">
<stop stop-color="white"/>
<stop offset="1" stop-color="#323232"/>
</linearGradient>
<linearGradient id="paint1_linear_59_4910" x1="6.29922" y1="5.19922" x2="31.6992" y2="36.9992" gradientUnits="userSpaceOnUse">
<stop stop-color="#2A2A2A"/>
<stop offset="1" stop-color="#323232"/>
</linearGradient>
</defs>
</svg>
