<svg width="25" height="24" viewBox="0 0 25 24" fill="none" xmlns="http://www.w3.org/2000/svg">
<path d="M8.3375 0.829688C8.59062 0.31875 9.11094 0 9.67813 0H15.3219C15.8891 0 16.4094 0.31875 16.6625 0.829688L17 1.5H21.5C22.3297 1.5 23 2.17031 23 3C23 3.82969 22.3297 4.5 21.5 4.5H3.5C2.67031 4.5 2 3.82969 2 3C2 2.17031 2.67031 1.5 3.5 1.5H8L8.3375 0.829688ZM3.5 6H21.5V21C21.5 22.6547 20.1547 24 18.5 24H6.5C4.84531 24 3.5 22.6547 3.5 21V6ZM8 9C7.5875 9 7.25 9.3375 7.25 9.75V20.25C7.25 20.6625 7.5875 21 8 21C8.4125 21 8.75 20.6625 8.75 20.25V9.75C8.75 9.3375 8.4125 9 8 9ZM12.5 9C12.0875 9 11.75 9.3375 11.75 9.75V20.25C11.75 20.6625 12.0875 21 12.5 21C12.9125 21 13.25 20.6625 13.25 20.25V9.75C13.25 9.3375 12.9125 9 12.5 9ZM17 9C16.5875 9 16.25 9.3375 16.25 9.75V20.25C16.25 20.6625 16.5875 21 17 21C17.4125 21 17.75 20.6625 17.75 20.25V9.75C17.75 9.3375 17.4125 9 17 9Z" fill="#D12733"/>
</svg>
